# xmcd
#
# Track frame offsets:
#	150
#	12175
#	25652
#	38602
#	50992
#	63430
#	77330
#	87525
#	103002
#	114740
#	128140
#	157352
#	168932
#
# Disc length: 2430 seconds
#
# Revision: 1
# Processed by: cddbd v1.5PL3 Copyright (c) Steve Scherf et al.
# Submitted via: audiograbber 1.80
#
DISCID=a6097c0d
DTITLE=Bullamakanka - Bullamakanka
DYEAR=1900
DGENRE=
TTITLE0=Riding High
TTITLE1=Blackberry Blossom Time
TTITLE2=The Gamble
TTITLE3=Home Among The Gumtrees
TTITLE4=Indian Pacific
TTITLE5=Slim Dusty
TTITLE6=Single Saddle
TTITLE7=Blowflies, Gutars And Ten Gallon Hats
TTITLE8=Housework
TTITLE9=Waratah And Wattle
TTITLE10=Orange Blossom Special
TTITLE11=Bullas In Bilambil
TTITLE12=Cobaki Creek
EXTD=
EXTT0=
EXTT1=
EXTT2=
EXTT3=
EXTT4=
EXTT5=
EXTT6=
EXTT7=
EXTT8=
EXTT9=
EXTT10=
EXTT11=
EXTT12=
PLAYORDER=
